<?xml version="1.0" standalone="no"?><!DOCTYPE svg PUBLIC "-//W3C//DTD SVG 1.1//EN" "http://www.w3.org/Graphics/SVG/1.1/DTD/svg11.dtd"><svg t="1491465607969" class="icon" style="" viewBox="0 0 1024 1024" version="1.1" xmlns="http://www.w3.org/2000/svg" p-id="3822" xmlns:xlink="http://www.w3.org/1999/xlink" width="200" height="200"><defs><style type="text/css"></style></defs><path d="M688.299 183.233c35.433 21.445 63.94 162.787-23.887 168.134-3.871 0.235-7.657 0.352-11.316 0.352-180.178 0-105.406-279.468-105.406-279.468-255.431 76.121-187.258 331.867-187.258 331.867s-74.368-77.007-55.761-185.27c-108.263 69.355-82.692 249.396-82.692 249.396s-66.742-28.914-51.361-120.179c-30.128 54.866-43.371 109.998-43.371 177.015 0 212.494 172.259 384.751 384.751 384.751s384.751-172.257 384.751-384.751c0-148.913-84.689-277.904-208.452-341.847z" p-id="3823"></path></svg>