<?xml version="1.0" standalone="no"?><!DOCTYPE svg PUBLIC "-//W3C//DTD SVG 1.1//EN" "http://www.w3.org/Graphics/SVG/1.1/DTD/svg11.dtd"><svg t="1491462835552" class="icon" style="" viewBox="0 0 1024 1024" version="1.1" xmlns="http://www.w3.org/2000/svg" p-id="3209" xmlns:xlink="http://www.w3.org/1999/xlink" width="200" height="200"><defs><style type="text/css"></style></defs><path d="M920.291 445.998l-330.811-344.32c-20.554-21.377-48.035-33.141-77.483-33.141-29.451 0-56.929 11.763-77.482 33.141l-330.809 344.32c-34.135 35.54-29.741 66.259-24.097 79.090 4.023 9.104 17.601 34.13 56.715 34.13h48.489v264.879c0 60.139 43.186 116.761 104.562 116.761h140.828v-280.322c0-30.052-4.553-46.799 26.148-46.799h111.297c30.702 0 26.146 16.748 26.146 46.799v280.324h140.827c61.376 0 104.566-56.623 104.566-116.761v-264.88h48.485c39.116 0 52.697-25.025 56.716-34.13 5.643-12.832 10.037-43.551-24.097-79.091z" p-id="3210" fill="#999999"></path></svg>