<?xml version="1.0" standalone="no"?><!DOCTYPE svg PUBLIC "-//W3C//DTD SVG 1.1//EN" "http://www.w3.org/Graphics/SVG/1.1/DTD/svg11.dtd"><svg t="1491465592776" class="icon" style="" viewBox="0 0 1024 1024" version="1.1" xmlns="http://www.w3.org/2000/svg" p-id="3604" xmlns:xlink="http://www.w3.org/1999/xlink" width="200" height="200"><defs><style type="text/css"></style></defs><path d="M511.999488 64.696552c-247.045806 0-447.302936 276.167083-447.302936 447.2794 0 89.08708 51.884746 189.240204 126.677248 272.260096 169.776901 7.813974 315.140762-174.290709 370.228459-253.088435 12.959163-18.54028 12.837389-24.4376 10.580997-31.572098-3.202952-10.023294-17.715495-17.667399-17.715495-17.667399l-66.905873-30.166074c0 0-8.057521-5.192261-4.17407-13.007258 3.470035-7.037284 16.86615-9.027616 16.86615-9.027616l164.486403-62.197636c0 0 16.526412-10.653651 35.115811-2.815118 16.768935 7.061843 19.534935 26.718552 19.534935 26.718552l40.673392 178.512875c0 0 4.028761 14.731531-3.13132 20.215434-7.159057 5.460367-16.089459-0.339738-16.089459-0.339738l-42.565487-24.801897c0 0-12.182472-7.037284-19.123565-4.828987-5.800105 1.845023-10.580997 5.483903-16.890709 15.822376-42.540928 68.896205-179.945505 264.688646-378.528504 293.227661 72.973061 54.650745 154.439572 90.081735 228.261979 90.081735 171.111294 0 447.302936-261.000647 447.302936-447.2794C959.303448 315.576691 698.279265 64.696552 511.999488 64.696552L511.999488 64.696552zM511.999488 64.696552" p-id="3605"></path></svg>