<?xml version="1.0" standalone="no"?><!DOCTYPE svg PUBLIC "-//W3C//DTD SVG 1.1//EN" "http://www.w3.org/Graphics/SVG/1.1/DTD/svg11.dtd"><svg t="1491465575108" class="icon" style="" viewBox="0 0 1024 1024" version="1.1" xmlns="http://www.w3.org/2000/svg" p-id="3386" xmlns:xlink="http://www.w3.org/1999/xlink" width="200" height="200"><defs><style type="text/css"></style></defs><path d="M629.827 131.595c134.036 74.285 224.849 216.689 224.849 380.404 0 163.718-90.813 306.083-224.849 380.387 200.366-12.259 359.145-177.635 359.145-380.387 0-202.75-158.816-368.089-359.145-380.404zM800.906 511.999c0-210.723-171.451-381.578-382.958-381.578-211.471 0-382.922 170.854-382.922 381.578 0 210.725 171.451 381.579 382.922 381.579 211.506 0 382.958-170.853 382.958-381.579zM575.831 578.885c9.577 0.729 17.067 4.38 22.581 10.956 5.479 6.576 8.609 14.439 9.316 23.588-0.707 9.503-3.838 17.44-9.316 23.83-5.515 6.389-13.004 9.931-22.581 10.676l-105.604-0.54v58.112c-1.455 31.059-18.519 46.58-51.163 46.58-16.135 0-28.694-3.82-37.674-11.495-9.020-7.678-13.863-19.358-14.571-35.084v-57.013h-106.202c-9.875-0.725-17.515-4.844-22.805-12.333-5.329-7.474-8.533-15.801-9.651-24.93 1.118-9.13 4.322-16.62 9.651-22.47 5.291-5.85 12.93-9.148 22.805-9.876h106.202v-34.543l-106.202-0.541c-9.875-0.747-17.515-4.21-22.805-10.415-5.329-6.224-8.533-14.085-9.651-23.588 1.118-9.131 4.322-16.62 9.651-22.47 5.291-5.85 12.93-9.127 22.805-9.873h79.223l-73.709-129.36c-3.689-4.38-7.154-9.969-10.47-16.715-3.28-6.763-4.771-14.159-4.398-22.209 1.827-10.249 5.517-18.557 10.993-24.948 5.515-6.389 15.801-10.507 30.817-12.333 8.796 0.725 16.693 3.762 23.661 9.055 6.97 5.291 12.671 11.049 17.067 17.252l83.619 152.407 91.855-153.488c4.396-6.204 10.099-11.701 17.067-16.452 6.967-4.769 14.867-7.677 23.661-8.775 5.517 0.354 10.547 1.098 15.13 2.179 4.545 1.118 8.608 2.945 12.112 5.517 3.466 2.55 6.409 6.204 8.795 10.956 2.385 4.732 4.099 10.954 5.216 18.649 0 10.603-3.651 20.645-10.993 30.147l-85.259 138.135h80.864c9.54 0.729 17.067 4.025 22.543 9.875 5.479 5.85 8.609 13.34 9.354 22.47-0.746 9.52-3.95 17.551-9.614 24.127-5.701 6.557-13.302 10.21-22.843 10.956l-105.083 0.538v33.444h105.604zM629.827 131.595c134.036 74.285 224.849 216.689 224.849 380.404 0 163.718-90.813 306.083-224.849 380.387 200.366-12.259 359.145-177.635 359.145-380.387 0-202.75-158.816-368.089-359.145-380.404zM800.906 511.999c0-210.723-171.451-381.578-382.958-381.578-211.471 0-382.922 170.854-382.922 381.578 0 210.725 171.451 381.579 382.922 381.579 211.506 0 382.958-170.853 382.958-381.579zM575.831 578.885c9.577 0.729 17.067 4.38 22.581 10.956 5.479 6.576 8.609 14.439 9.316 23.588-0.707 9.503-3.838 17.44-9.316 23.83-5.515 6.389-13.004 9.931-22.581 10.676l-105.604-0.54v58.112c-1.455 31.059-18.519 46.58-51.163 46.58-16.135 0-28.694-3.82-37.674-11.495-9.020-7.678-13.863-19.358-14.571-35.084v-57.013h-106.202c-9.875-0.725-17.515-4.844-22.805-12.333-5.329-7.474-8.533-15.801-9.651-24.93 1.118-9.13 4.322-16.62 9.651-22.47 5.291-5.85 12.93-9.148 22.805-9.876h106.202v-34.543l-106.202-0.541c-9.875-0.747-17.515-4.21-22.805-10.415-5.329-6.224-8.533-14.085-9.651-23.588 1.118-9.131 4.322-16.62 9.651-22.47 5.291-5.85 12.93-9.127 22.805-9.873h79.223l-73.709-129.36c-3.689-4.38-7.154-9.969-10.47-16.715-3.28-6.763-4.771-14.159-4.398-22.209 1.827-10.249 5.517-18.557 10.993-24.948 5.515-6.389 15.801-10.507 30.817-12.333 8.796 0.725 16.693 3.762 23.661 9.055 6.97 5.291 12.671 11.049 17.067 17.252l83.619 152.407 91.855-153.488c4.396-6.204 10.099-11.701 17.067-16.452 6.967-4.769 14.867-7.677 23.661-8.775 5.517 0.354 10.547 1.098 15.13 2.179 4.545 1.118 8.608 2.945 12.112 5.517 3.466 2.55 6.409 6.204 8.795 10.956 2.385 4.732 4.099 10.954 5.216 18.649 0 10.603-3.651 20.645-10.993 30.147l-85.259 138.135h80.864c9.54 0.729 17.067 4.025 22.543 9.875 5.479 5.85 8.609 13.34 9.354 22.47-0.746 9.52-3.95 17.551-9.614 24.127-5.701 6.557-13.302 10.21-22.843 10.956l-105.083 0.538v33.444h105.604z" p-id="3387"></path></svg>